<svg fill="none" version="1.1" viewBox="0 0 122 66" xmlns="http://www.w3.org/2000/svg">
 <g fill="#fff">
  <path d="m29.4 29.9 19.7-11.4c4.6-2.7 6.2-8.6 3.5-13.2-2.7-4.6-8.6-6.2-13.2-3.5l-34 19.6 24 8.5z"/>
  <path d="m44.2 59.1c3.3 0 6.6-1.7 8.4-4.8 2.7-4.6 1.1-10.5-3.5-13.2l-34-19.6c-4.6-2.7-10.5-1.1-13.2 3.5-2.7 4.6-1.1 10.5 3.5 13.2l34 19.6c1.5 0.9 3.2 1.3 4.8 1.3z" stroke="#000"/>
  <path d="m78 59.1c1.6 0 3.3-0.4 4.8-1.3l34-19.6-23.7-8.7-20 11.5c-4.6 2.7-6.2 8.6-3.5 13.2 1.8 3.2 5.1 4.9 8.4 4.9z"/>
  <path d="m112 39.5c3.3 0 6.6-1.7 8.4-4.8 2.7-4.6 1.1-10.5-3.5-13.2l-34-19.6c-4.6-2.7-10.5-1.1-13.2 3.5-2.7 4.6-1.1 10.5 3.5 13.2l34 19.6c1.5 0.9 3.2 1.3 4.8 1.3z" stroke="#000"/>
 </g>
</svg>
