<?xml version="1.0" standalone="no"?>
<!DOCTYPE svg PUBLIC "-//W3C//DTD SVG 20010904//EN"
 "http://www.w3.org/TR/2001/REC-SVG-20010904/DTD/svg10.dtd">
<svg version="1.0" xmlns="http://www.w3.org/2000/svg"
 width="512.000000pt" height="512.000000pt" viewBox="0 0 512.000000 512.000000"
 preserveAspectRatio="xMidYMid meet">
<metadata>
Created by potrace 1.14, written by Peter Selinger 2001-2017
</metadata>
<g transform="translate(0.000000,512.000000) scale(0.100000,-0.100000)"
fill="#000000" stroke="none">
<path d="M1825 3622 c-27 -10 -126 -62 -220 -116 -93 -54 -246 -142 -340 -196
-93 -54 -269 -155 -390 -226 -121 -70 -245 -140 -275 -157 -135 -74 -201 -135
-243 -225 -51 -110 -39 -242 32 -345 41 -59 64 -79 161 -135 47 -27 141 -81
209 -121 68 -39 127 -71 132 -71 5 0 9 -4 9 -10 0 -5 4 -10 10 -10 5 0 49 -23
97 -51 48 -28 117 -68 153 -89 297 -173 593 -341 630 -358 174 -81 389 0 472
177 15 33 22 70 24 131 3 93 -5 128 -49 202 -41 70 -84 101 -347 250 -19 11
-64 37 -100 58 -36 21 -83 48 -105 61 -118 67 -238 137 -270 156 -24 14 -29 8
70 65 44 25 163 94 265 153 102 59 201 117 220 127 189 107 241 151 290 248
33 63 39 183 15 255 -64 186 -269 290 -450 227z"/>
<path d="M3077 3620 c-96 -30 -167 -93 -215 -190 -24 -48 -27 -67 -27 -150 0
-83 3 -102 27 -150 15 -30 46 -74 70 -97 27 -26 171 -116 381 -238 186 -107
352 -202 368 -211 17 -8 29 -20 27 -25 -2 -6 -30 -25 -63 -43 -276 -152 -677
-392 -713 -426 -25 -24 -57 -70 -75 -107 -26 -57 -30 -77 -30 -148 0 -70 5
-91 31 -146 30 -62 97 -136 151 -167 71 -41 191 -53 274 -28 36 11 551 299
780 437 26 16 50 29 54 29 3 0 14 6 22 14 9 7 41 27 71 43 30 17 84 47 120 68
36 21 85 49 110 63 25 13 52 30 60 36 8 6 42 25 74 41 87 44 168 126 196 200
40 106 26 244 -33 329 -50 71 -115 115 -417 284 -25 13 -49 28 -55 32 -5 4
-32 20 -60 36 -27 15 -63 35 -80 45 -16 10 -48 28 -70 40 -22 12 -134 77 -250
144 -115 67 -230 133 -255 147 -25 14 -73 42 -108 62 -158 94 -250 113 -365
76z"/>
</g>
</svg>
